<svg width="17" height="18" viewBox="0 0 17 18" fill="none" xmlns="http://www.w3.org/2000/svg">
<path d="M8.26412 0.570801C3.72211 0.570801 0 4.48182 0 9.21332C0 13.9174 3.68819 17.7886 8.26412 17.7886C12.8344 17.7886 16.5282 13.9231 16.5282 9.21332C16.5282 4.48182 12.8061 0.570801 8.26412 0.570801ZM9.7168 16.6284C9.252 16.7293 8.75806 16.7797 8.26412 16.7797C7.77019 16.7797 7.27625 16.7293 6.81145 16.6284V14.2677C6.81145 13.7027 6.95671 13.501 7.1504 13.2285C7.24901 13.1111 7.30853 13.0057 7.75077 12.3106L7.00514 12.1894C5.08753 11.8969 4.33218 10.8577 4.03194 10.0506C3.64456 8.97122 3.84796 7.61925 4.54529 6.76186C4.65185 6.63063 4.73898 6.40863 4.66156 6.17664C4.51616 5.71254 4.53558 4.97613 4.63243 4.69357C5.14591 4.77003 5.67389 5.15321 6.11424 5.43012C6.31713 5.55347 6.42356 5.52089 6.52091 5.531C6.87475 5.45429 7.42669 5.26867 8.27383 5.26867C8.79677 5.26867 9.34884 5.34933 9.8912 5.51077C9.98817 5.50841 10.144 5.59432 10.4141 5.43012C10.8744 5.13797 11.3845 4.76792 11.8958 4.69357C11.9927 4.97613 12.0121 5.71254 11.8668 6.17664C11.7893 6.40863 11.8764 6.63063 11.9831 6.76186C12.6803 7.61938 12.8837 8.97122 12.4963 10.0506C12.1961 10.8577 11.4407 11.8969 9.52311 12.1894L8.77748 12.3106C9.23459 13.0291 9.28276 13.1153 9.37797 13.2285C9.57153 13.501 9.7168 13.7027 9.7168 14.2677V16.6284ZM10.6853 16.3359V14.2677C10.6853 13.6926 10.569 13.3093 10.414 13.0267C11.8861 12.6132 12.9321 11.7051 13.3969 10.4037C13.8909 9.03178 13.6682 7.39738 12.8449 6.26741C12.9902 5.59156 12.9902 4.51203 12.6416 4.00761C12.4866 3.78574 12.2735 3.66462 12.0024 3.66462C11.9927 3.66462 11.9927 3.66462 11.9927 3.66462C11.2417 3.70692 10.6507 4.10087 10.017 4.50192C9.43598 4.34048 8.8452 4.25982 8.25441 4.25982C7.65405 4.25982 7.05356 4.35059 6.52104 4.50192C5.85396 4.08288 5.26861 3.70587 4.49687 3.66462C4.25476 3.66462 4.04165 3.78574 3.88667 4.00761C3.53813 4.51203 3.53813 5.59156 3.6834 6.26741C2.86009 7.39738 2.63739 9.04176 3.13133 10.4037C3.59613 11.7051 4.64214 12.6132 6.11424 13.0267C5.99406 13.2457 5.89898 13.5283 5.86153 13.9107C5.56419 14.0175 5.30631 14.0523 5.06647 13.9788C4.81351 13.9009 4.61641 13.7251 4.44517 13.425C4.06056 12.7519 3.40547 12.2024 2.65959 12.2739L2.7447 13.2788C3.09009 13.2459 3.43384 13.6265 3.6124 13.9404C3.90697 14.4571 4.30381 14.796 4.7922 14.9463C5.15474 15.0576 5.48613 15.055 5.84299 14.9756V16.3359C3.02477 15.3068 0.968452 12.5022 0.968452 9.21332C0.968452 5.03669 4.25476 1.57966 8.26412 1.57966C12.2735 1.57966 15.5598 5.03669 15.5598 9.21332C15.5598 12.5022 13.5035 15.3068 10.6853 16.3359Z" fill="white"/>
</svg>
