<svg width="19" height="20" viewBox="0 0 19 20" fill="none" xmlns="http://www.w3.org/2000/svg">
<path d="M2.46337 0.466431C1.79432 0.466431 1.18607 0.724056 0.729886 1.20708C0.243307 1.72229 0 2.3663 0 3.04253C0 3.75095 0.273707 4.395 0.729886 4.87802C1.18607 5.36104 1.82472 5.65086 2.43297 5.61867C2.43297 5.61867 2.46337 5.61867 2.4938 5.61867C3.10205 5.61867 3.67987 5.36104 4.13605 4.87802C4.59222 4.395 4.86593 3.75095 4.86593 3.04253C4.89633 2.3663 4.62262 1.72225 4.16645 1.23923C3.71027 0.724018 3.10202 0.466431 2.46337 0.466431ZM3.71027 4.42722C3.37572 4.78145 2.91954 5.00685 2.43297 4.97466C1.97679 4.97466 1.49021 4.78145 1.15567 4.42722C0.790722 4.07299 0.60825 3.55778 0.60825 3.04257C0.60825 2.52736 0.790722 2.04433 1.15567 1.65791C1.49021 1.30368 1.94639 1.11047 2.46337 1.11047C2.91955 1.11047 3.37572 1.30368 3.71027 1.65791C4.07521 2.04433 4.25768 2.52736 4.25768 3.04257C4.25768 3.55778 4.07521 4.07299 3.71027 4.42722Z" fill="white"/>
<path d="M3.64943 6.26271H1.18607C0.699486 6.26271 0.304107 6.68132 0.304107 7.22876V18.4993C0.304107 19.0145 0.729886 19.4654 1.21647 19.4654H3.64943C4.13601 19.4654 4.56179 19.0145 4.56179 18.5315V7.22876C4.56179 6.71351 4.13601 6.26271 3.64943 6.26271ZM3.95354 18.5315C3.95354 18.6925 3.80147 18.8213 3.64943 18.8213H1.21647C1.06439 18.8213 0.912358 18.6603 0.912358 18.4993V7.22876C0.912358 7.06774 1.03399 6.90676 1.18607 6.90676H3.64943C3.8015 6.90676 3.95354 7.06778 3.95354 7.22876V18.5315Z" fill="white"/>
<path d="M13.9895 5.94067H13.3508C12.1648 5.94067 11.0395 6.48811 10.3096 7.35755V6.90672C10.3096 6.58472 10.0055 6.26267 9.70139 6.26267H6.66021C6.3865 6.26267 6.05196 6.5203 6.05196 6.87449V18.8857C6.05196 19.2399 6.3865 19.4653 6.66021 19.4653H10.0055C10.2792 19.4653 10.6138 19.2399 10.6138 18.8857V11.9301C10.6138 10.8675 11.3437 10.0302 12.2864 10.0302C12.773 10.0302 13.2292 10.2234 13.5637 10.5777C13.8678 10.8675 13.9895 11.3183 13.9895 11.8979V18.8213C13.9895 19.1433 14.2936 19.4653 14.5978 19.4653H17.6389C17.943 19.4653 18.2472 19.1433 18.2472 18.8213V10.5133C18.2472 7.93718 16.392 5.94067 13.9895 5.94067ZM17.6389 18.7891L17.6085 18.8213H14.6281L14.5977 11.898C14.5977 11.1251 14.4153 10.5455 14.0199 10.1269C13.5637 9.64388 12.9555 9.38625 12.3168 9.38625C11.0395 9.41844 10.0359 10.5133 10.0359 11.9302V18.8213H6.69061V6.90672H9.70139L9.73179 6.93891V8.96761L10.5833 8.06597C11.1916 7.16434 12.256 6.58471 13.3812 6.58471H14.0199C16.0575 6.58471 17.6389 8.3236 17.6389 10.5133V18.7891Z" fill="white"/>
</svg>
