<svg width="19" height="16" viewBox="0 0 19 16" fill="none" xmlns="http://www.w3.org/2000/svg">
<path d="M18.4935 0.416115C18.2706 0.147751 17.9368 0 17.5534 0C17.345 0 17.1242 0.043174 16.8972 0.128562L1.45138 5.93347C0.631681 6.24145 0.521283 6.70361 0.528383 6.95169C0.535483 7.19977 0.672331 7.65508 1.50845 7.91701C1.51347 7.91851 1.51848 7.92002 1.52349 7.92139L4.72738 8.82407L6.46004 13.702C6.69629 14.3671 7.22656 14.7802 7.84411 14.7802C8.2335 14.7802 8.61648 14.6195 8.95171 14.3158L10.9334 12.5193L13.8078 14.798C13.8081 14.7982 13.8085 14.7984 13.8088 14.7987L13.8361 14.8203C13.8386 14.8222 13.8412 14.8243 13.8437 14.8262C14.1632 15.0702 14.5119 15.199 14.8526 15.1991H14.8527C15.5183 15.1991 16.0483 14.7141 16.2027 13.9636L18.7335 1.66048C18.8351 1.16666 18.7499 0.724774 18.4935 0.416115ZM5.79919 8.65261L11.9805 5.54367L8.13159 9.57009C8.06853 9.63601 8.02384 9.71674 8.00185 9.8046L7.25969 12.7643L5.79919 8.65261ZM8.22737 13.5414C8.20176 13.5646 8.176 13.5853 8.15025 13.6043L8.8388 10.8587L10.0913 11.8517L8.22737 13.5414ZM17.6856 1.45147L15.1548 13.7547C15.1305 13.8724 15.0527 14.1464 14.8526 14.1464C14.7538 14.1464 14.6296 14.0933 14.5025 13.997L11.2454 11.4151C11.245 11.4146 11.2444 11.4142 11.2439 11.414L9.30587 9.87751L14.8718 4.05479C15.05 3.86839 15.0662 3.58289 14.9101 3.37812C14.7539 3.17335 14.4709 3.10894 14.2394 3.22544L5.08488 7.82984L1.83742 6.9151L17.2786 1.11197C17.409 1.0629 17.5 1.05262 17.5534 1.05262C17.5861 1.05262 17.6443 1.05646 17.6658 1.08264C17.6942 1.11677 17.7304 1.23313 17.6856 1.45147Z" fill="white"/>
</svg>
