<svg width="19" height="16" viewBox="0 0 19 16" fill="none" xmlns="http://www.w3.org/2000/svg">
<path d="M18.4247 2.29609C17.2769 2.34993 17.3019 2.34554 17.1722 2.35659L17.852 0.380842C17.852 0.380842 15.73 1.17525 15.1921 1.31736C13.7794 0.0250804 11.6794 -0.0320172 10.1781 0.907046C8.94873 1.67623 8.28885 2.99713 8.50895 4.54103C6.11626 4.20312 4.10029 3.04884 2.50865 1.10299L2.00524 0.48767L1.62909 1.19069C1.15367 2.07903 0.995796 3.09475 1.18443 4.05067C1.26184 4.44284 1.39339 4.81688 1.57563 5.16712L1.14378 4.99682L1.09255 5.73115C1.04062 6.47711 1.28467 7.34788 1.74547 8.06025C1.87522 8.26087 2.04228 8.48119 2.25402 8.69853L2.03086 8.66367L2.30316 9.50512C2.66109 10.6107 3.40449 11.466 4.36925 11.9415C3.40575 12.3576 2.6274 12.6231 1.34801 13.0514L0.17749 13.443L1.25863 14.0446C1.67085 14.274 3.12746 15.04 4.56666 15.2698C7.76582 15.7805 11.3677 15.3646 13.7926 13.1421C15.835 11.27 16.5052 8.60714 16.366 5.836C16.3449 5.41648 16.4579 5.01609 16.6839 4.70878C17.1368 4.09346 18.4219 2.3002 18.4247 2.29609ZM15.829 4.05705C15.4536 4.56724 15.2655 5.21883 15.2992 5.89154C15.4396 8.68677 14.6923 10.8545 13.0778 12.3342C11.1919 14.0629 8.14992 14.7414 4.73219 14.1958C4.11324 14.097 3.47354 13.8758 2.94411 13.655C4.01676 13.2794 4.84509 12.9446 6.18281 12.3002L8.05024 11.4007L5.98846 11.2664C5.00087 11.202 4.17853 10.7149 3.67304 9.92407C3.94145 9.9082 4.20025 9.864 4.45793 9.79089L6.42435 9.23351L4.44151 8.73933C3.478 8.49918 2.9288 7.91248 2.6377 7.4625C2.44656 7.16681 2.32168 6.86389 2.24678 6.58464C2.44558 6.63891 2.67737 6.67758 3.05117 6.71527L4.88644 6.90002L3.43234 5.7456C2.38461 4.91394 1.96473 3.66445 2.27254 2.46327C5.54242 5.91491 9.38169 5.6555 9.76815 5.74674C9.68309 4.90586 9.68086 4.90388 9.65859 4.82383C9.16368 3.04332 10.2483 2.13925 10.7375 1.83322C11.7593 1.19409 13.3813 1.09775 14.5048 2.15072C14.7475 2.37798 15.0756 2.46738 15.3827 2.38974C15.6583 2.32003 15.8846 2.24622 16.1061 2.16588L15.645 3.50591L16.2336 3.50633C16.1225 3.65793 15.9893 3.83942 15.829 4.05705Z" fill="white"/>
</svg>
